<?xml version="1.0" encoding="utf-8"?>
<!-- Generator: Adobe Illustrator 17.0.0, SVG Export Plug-In . SVG Version: 6.00 Build 0)  -->
<!DOCTYPE svg PUBLIC "-//W3C//DTD SVG 1.1//EN" "http://www.w3.org/Graphics/SVG/1.1/DTD/svg11.dtd">
<svg version="1.1" id="Layer_1" xmlns="http://www.w3.org/2000/svg" xmlns:xlink="http://www.w3.org/1999/xlink" x="0px" y="0px"
	 width="300px" height="300px" viewBox="0 0 300 300" enable-background="new 0 0 300 300" xml:space="preserve">
<path fill="#00FF66" stroke="#000000" stroke-miterlimit="10" d="M182.77,71.892c0,6.627-5.373,12-12,12h-41.54
	c-6.627,0-12-5.373-12-12V30.351c0-6.627,5.373-12,12-12h41.541c6.627,0,12,5.373,12,12L182.77,71.892L182.77,71.892z"/>
<line fill="none" stroke="#000000" stroke-miterlimit="10" x1="150" y1="83.892" x2="150" y2="112.338"/>
<line fill="none" stroke="#000000" stroke-miterlimit="10" x1="150" y1="131.257" x2="36.351" y2="236.257"/>
<line fill="none" stroke="#000000" stroke-miterlimit="10" x1="150" y1="131.257" x2="112.117" y2="236.257"/>
<line fill="none" stroke="#000000" stroke-miterlimit="10" x1="150" y1="131.257" x2="187.883" y2="236.257"/>
<line fill="none" stroke="#000000" stroke-miterlimit="10" x1="150" y1="131.257" x2="263.649" y2="237.635"/>
<rect x="10" y="211.284" fill="#CCCCCC" stroke="#000000" stroke-miterlimit="10" width="52.703" height="52.703"/>
<rect x="85.766" y="211.284" fill="#CCCCCC" stroke="#000000" stroke-miterlimit="10" width="52.703" height="52.703"/>
<rect x="161.532" y="211.284" fill="#CCCCCC" stroke="#000000" stroke-miterlimit="10" width="52.703" height="52.703"/>
<rect x="237.297" y="211.284" fill="#CCCCCC" stroke="#000000" stroke-miterlimit="10" width="52.703" height="52.703"/>
<ellipse fill="#0066FF" stroke="#000000" stroke-miterlimit="10" cx="150" cy="131.257" rx="30.405" ry="18.919"/>
<text transform="matrix(1 0 0 1 137.6929 51.1216)" font-family="'MyriadPro-Regular'" font-size="15">You</text>
<text transform="matrix(1 0 0 1 132.7085 131.2568)" font-family="'MyriadPro-Regular'" font-size="12">Login2</text>
<text transform="matrix(1 0 0 1 16.3716 237.6355)" font-family="'MyriadPro-Regular'" font-size="12">Hybrid1</text>
<text transform="matrix(1 0 0 1 94.4121 237.6355)" font-family="'MyriadPro-Regular'" font-size="12">Hybrid2</text>
<text transform="matrix(1 0 0 1 167.9033 237.635)" font-family="'MyriadPro-Regular'" font-size="12">Hybrid3</text>
<text transform="matrix(1 0 0 1 243.6692 237.6353)" font-family="'MyriadPro-Regular'" font-size="12">Hybrid4</text>
<text transform="matrix(1 0 0 1 11.577 218.8743)"><tspan x="0" y="0" font-family="'MyriadPro-Regular'" font-size="5.9942">CPU: 2, 64 cores ea.</tspan><tspan x="0" y="7.193" font-family="'MyriadPro-Regular'" font-size="5.9942">RAM: 256GB</tspan></text>
<text transform="matrix(1 0 0 1 88.3013 218.8743)"><tspan x="0" y="0" font-family="'MyriadPro-Regular'" font-size="5.9942">CPU: 2, 64 cores ea.</tspan><tspan x="0" y="7.193" font-family="'MyriadPro-Regular'" font-size="5.9942">RAM: 256GB</tspan></text>
<text transform="matrix(1 0 0 1 164.2883 218.8743)"><tspan x="0" y="0" font-family="'MyriadPro-Regular'" font-size="5.9942">CPU: 2, 64 cores ea.</tspan><tspan x="0" y="7.193" font-family="'MyriadPro-Regular'" font-size="5.9942">RAM: 256GB</tspan></text>
<text transform="matrix(1 0 0 1 240.1734 218.8743)"><tspan x="0" y="0" font-family="'MyriadPro-Regular'" font-size="5.9942">CPU: 2, 64 cores ea.</tspan><tspan x="0" y="7.193" font-family="'MyriadPro-Regular'" font-size="5.9942">RAM: 256GB</tspan></text>
<text transform="matrix(1 0 0 1 11.5753 245.5372)"><tspan x="0" y="0" font-family="'MyriadPro-Regular'" font-size="6.1446">VC: Tesla V100</tspan><tspan x="0" y="7.373" font-family="'MyriadPro-Regular'" font-size="6.1446">Mem: 16GB</tspan><tspan x="0" y="14.747" font-family="'MyriadPro-Regular'" font-size="6.1446">CC: 5,120 TC: 640</tspan></text>
<text transform="matrix(1 0 0 1 88.3014 245.5372)"><tspan x="0" y="0" font-family="'MyriadPro-Regular'" font-size="6.1446">VC: Tesla V100</tspan><tspan x="0" y="7.373" font-family="'MyriadPro-Regular'" font-size="6.1446">Mem: 16GB</tspan><tspan x="0" y="14.747" font-family="'MyriadPro-Regular'" font-size="6.1446">CC: 5,120 TC: 640</tspan></text>
</svg>
